<svg aria-hidden="true" style="position: absolute; width: 100%; height: 100%; overflow: hidden;" version="1.1" xmlns="http://www.w3.org/2000/svg" xmlns:xlink="http://www.w3.org/1999/xlink">
<defs>
<symbol id="icon-Close" viewBox="0 0 32 32">
<path d="M24.485 9.4c0.521-0.521 0.521-1.365 0-1.886s-1.365-0.521-1.886 0l-6.6 6.6-6.6-6.6c-0.521-0.521-1.365-0.521-1.886 0s-0.521 1.365 0 1.886l6.6 6.6-6.6 6.6c-0.521 0.521-0.521 1.365 0 1.886s1.365 0.521 1.886 0l6.6-6.6 6.6 6.6c0.521 0.521 1.365 0.521 1.886 0s0.521-1.365 0-1.886l-6.6-6.6 6.6-6.6z"></path>
</symbol>
<symbol id="icon-Menu" viewBox="0 0 32 32">
<path d="M5.333 8c0-0.736 0.597-1.333 1.333-1.333h18.667c0.736 0 1.333 0.597 1.333 1.333s-0.597 1.333-1.333 1.333h-18.667c-0.736 0-1.333-0.597-1.333-1.333z"></path>
<path d="M5.333 16c0-0.736 0.597-1.333 1.333-1.333h18.667c0.736 0 1.333 0.597 1.333 1.333s-0.597 1.333-1.333 1.333h-18.667c-0.736 0-1.333-0.597-1.333-1.333z"></path>
<path d="M6.667 22.667c-0.736 0-1.333 0.597-1.333 1.333s0.597 1.333 1.333 1.333h18.667c0.736 0 1.333-0.597 1.333-1.333s-0.597-1.333-1.333-1.333h-18.667z"></path>
</symbol>
</defs>
</svg>
